HIERARCHY
ROOT hip
{
  OFFSET 0 0 0
  CHANNELS 6 Xposition Yposition Zposition Zrotation Yrotation Xrotation
  JOINT abdomen
  {
    OFFSET 0 20.6881 -0.73152
    CHANNELS 3 Zrotation Xrotation Yrotation
    JOINT chest
    {
      OFFSET 0 11.7043 -0.48768
      CHANNELS 3 Zrotation Xrotation Yrotation
      JOINT neck
      {
        OFFSET 0 22.1894 -2.19456
        CHANNELS 3 Zrotation Xrotation Yrotation
        JOINT head
        {
          OFFSET -0.24384 7.07133 1.2192
          CHANNELS 3 Zrotation Xrotation Yrotation
          JOINT leftEye
          {
            OFFSET 4.14528 8.04674 8.04672
            CHANNELS 3 Zrotation Xrotation Yrotation
            End Site
            {
              OFFSET 1 0 0
            }
          }
          JOINT rightEye
          {
            OFFSET -3.6576 8.04674 8.04672
            CHANNELS 3 Zrotation Xrotation Yrotation
            End Site
            {
              OFFSET 1 0 0
            }
          }
        }
      }
      JOINT rCollar
      {
        OFFSET -2.68224 19.2634 -4.8768
        CHANNELS 3 Zrotation Xrotation Yrotation
        JOINT rShldr
        {
          OFFSET -8.77824 -1.95073 1.46304
          CHANNELS 3 Zrotation Xrotation Yrotation
          JOINT rForeArm
          {
            OFFSET -28.1742 -1.7115 0.48768
            CHANNELS 3 Zrotation Xrotation Yrotation
            JOINT rHand
            {
              OFFSET -22.5879 0.773209 7.07136
              CHANNELS 3 Zrotation Xrotation Yrotation
              JOINT rThumb1
              {
                OFFSET -1.2192 -0.487915 3.41376
                CHANNELS 3 Zrotation Xrotation Yrotation
                JOINT rThumb2
                {
                  OFFSET -3.37035 -0.52449 3.41376
                  CHANNELS 3 Zrotation Xrotation Yrotation
                  End Site
                  {
                    OFFSET -1.78271 -1.18214 1.43049
                  }
                }
              }
              JOINT rIndex1
              {
                OFFSET -7.75947 0.938293 5.60832
                CHANNELS 3 Zrotation Xrotation Yrotation
                JOINT rIndex2
                {
                  OFFSET -2.54057 -0.884171 1.56538
                  CHANNELS 3 Zrotation Xrotation Yrotation
                  End Site
                  {
                    OFFSET -1.62519 -0.234802 1.16502
                  }
                }
              }
              JOINT rMid1
              {
                OFFSET -8.24714 1.18213 3.41376
                CHANNELS 3 Zrotation Xrotation Yrotation
                JOINT rMid2
                {
                  OFFSET -3.10165 -0.590103 1.0647
                  CHANNELS 3 Zrotation Xrotation Yrotation
                  End Site
                  {
                    OFFSET -2.48547 -0.328903 0.83742
                  }
                }
              }
              JOINT rRing1
              {
                OFFSET -8.82822 0.546677 1.51678
                CHANNELS 3 Zrotation Xrotation Yrotation
                JOINT rRing2
                {
                  OFFSET -2.60934 -0.819778 -0.0198488
                  CHANNELS 3 Zrotation Xrotation Yrotation
                  End Site
                  {
                    OFFSET -2.33842 -0.294052 0.168128
                  }
                }
              }
              JOINT rPinky1
              {
                OFFSET -8.27202 -0.0477905 -0.4584
                CHANNELS 3 Zrotation Xrotation Yrotation
                JOINT rPinky2
                {
                  OFFSET -1.82734 -0.647385 -0.700984
                  CHANNELS 3 Zrotation Xrotation Yrotation
                  End Site
                  {
                    OFFSET -1.69225 -0.51767 -0.607171
                  }
                }
              }
            }
          }
        }
      }
      JOINT lCollar
      {
        OFFSET 2.68224 19.2634 -4.8768
        CHANNELS 3 Zrotation Xrotation Yrotation
        JOINT lShldr
        {
          OFFSET 8.77824 -1.95073 1.46304
          CHANNELS 3 Zrotation Xrotation Yrotation
          JOINT lForeArm
          {
            OFFSET 28.1742 -1.7115 0.48768
            CHANNELS 3 Zrotation Xrotation Yrotation
            JOINT lHand
            {
              OFFSET 22.5879 0.773209 7.07136
              CHANNELS 3 Zrotation Xrotation Yrotation
              JOINT lThumb1
              {
                OFFSET 1.2192 -0.487915 3.41376
                CHANNELS 3 Zrotation Xrotation Yrotation
                JOINT lThumb2
                {
                  OFFSET 3.37035 -0.52449 3.41376
                  CHANNELS 3 Zrotation Xrotation Yrotation
                  End Site
                  {
                    OFFSET 1.78271 -1.18214 1.43049
                  }
                }
              }
              JOINT lIndex1
              {
                OFFSET 7.75947 0.938293 5.60832
                CHANNELS 3 Zrotation Xrotation Yrotation
                JOINT lIndex2
                {
                  OFFSET 2.54057 -0.884171 1.56538
                  CHANNELS 3 Zrotation Xrotation Yrotation
                  End Site
                  {
                    OFFSET 1.62519 -0.234802 1.16502
                  }
                }
              }
              JOINT lMid1
              {
                OFFSET 8.24714 1.18213 3.41376
                CHANNELS 3 Zrotation Xrotation Yrotation
                JOINT lMid2
                {
                  OFFSET 3.10165 -0.590103 1.0647
                  CHANNELS 3 Zrotation Xrotation Yrotation
                  End Site
                  {
                    OFFSET 2.48547 -0.328903 0.83742
                  }
                }
              }
              JOINT lRing1
              {
                OFFSET 8.82822 0.546677 1.51678
                CHANNELS 3 Zrotation Xrotation Yrotation
                JOINT lRing2
                {
                  OFFSET 2.60934 -0.819778 -0.0198488
                  CHANNELS 3 Zrotation Xrotation Yrotation
                  End Site
                  {
                    OFFSET 2.33842 -0.294052 0.168128
                  }
                }
              }
              JOINT lPinky1
              {
                OFFSET 8.27202 -0.0477905 -0.4584
                CHANNELS 3 Zrotation Xrotation Yrotation
                JOINT lPinky2
                {
                  OFFSET 1.82734 -0.647385 -0.700984
                  CHANNELS 3 Zrotation Xrotation Yrotation
                  End Site
                  {
                    OFFSET 1.69225 -0.51767 -0.607171
                  }
                }
              }
            }
          }
        }
      }
    }
  }
  JOINT rButtock
  {
    OFFSET -8.77824 4.35084 1.2192
    CHANNELS 3 Zrotation Xrotation Yrotation
    JOINT rThigh
    {
      OFFSET 0 -1.70687 -2.19456
      CHANNELS 3 Zrotation Xrotation Yrotation
      JOINT rShin
      {
        OFFSET 0 -36.8199 0.73152
        CHANNELS 3 Zrotation Xrotation Yrotation
        JOINT rFoot
        {
          OFFSET 0.73152 -45.1104 -5.12064
          CHANNELS 3 Zrotation Xrotation Yrotation
          End Site
          {
            OFFSET -1.1221 -3.69964 12.103
          }
        }
      }
    }
  }
  JOINT lButtock
  {
    OFFSET 8.77824 4.35084 1.2192
    CHANNELS 3 Zrotation Xrotation Yrotation
    JOINT lThigh
    {
      OFFSET 0 -1.70687 -2.19456
      CHANNELS 3 Zrotation Xrotation Yrotation
      JOINT lShin
      {
        OFFSET 0 -36.8199 0.73152
        CHANNELS 3 Zrotation Xrotation Yrotation
        JOINT lFoot
        {
          OFFSET -0.73152 -45.1104 -5.12064
          CHANNELS 3 Zrotation Xrotation Yrotation
          End Site
          {
            OFFSET 1.1221 -3.69964 12.103
          }
        }
      }
    }
  }
}
MOTION
Frames:	4
Frame Time:	0.03333
-1.4134773053228855 33.54431986808777 0.05117504624649882 -2.7492646928250837 2.4275890364571056 1.371449905146139 -0.06734209003918204 8.592966225918309 1.8967862211948536 2.202443589855271 -4.239337054607773 0.674153118015187 -2.9086437420127464 7.62914201043853 -0.8219198851184758 4.393779584572809 -13.600503194213879 -2.0153672698095604 0.3883957189450132 0.5941329695768448 -1.11413362722331 -0.5591203526743016 0.9298612065535955 0.4307569257034025 0.4803144838043407 0.986073343257683 0.7687708748137274 23.947232333880617 16.75232813766211 8.34122765122644 -12.410378589832298 -15.335401979248381 33.493984104746076 -2.201740934144406 -5.544686950287468 -2.3593738027820725 0.5618829507501603 0.3521307495055512 0.6396545795693931 -0.05484647239605528 0.7896795779670174 1.2561270702089398 -0.09845225434705464 0.04509037425991187 0.12372387423482248 3.9477725006392075 1.779708027640961 0.9569837810260103 0.6492584125118128 -0.09989663925331399 0.1948470209283487 1.6828420713884285 1.4862224829683293 -0.971783306853547 0.19079690551351627 -0.3246038064899304 0.02179868047070127 5.076202994455824 -0.6423567731597793 -0.8801982607681981 -0.1188272022290919 0.1950614515156901 1.1039154507815594 1.381378332156693 0.3603397030729809 -0.2969197424429729 0.4731699992108016 0.7819071428566602 0.23403517793044398 -30.214137510589712 16.523405809892672 -11.678703966504791 12.499655992473535 -14.654232335964887 -31.220787865939116 2.1402730735956994 -5.895061567443959 2.499087456688799 0.9241249148678425 0.12329502640035295 0.5004013231014077 0.23388128523070714 1.1641833324704594 0.36489538588852655 0.13090944668508744 -0.10122210949890637 -0.6029938593644669 -3.8000005041723353 2.8986902354013337 -0.09678670204577645 0.8274946001416756 0.6936672886390307 -0.9112075330434675 -1.2400704694090032 -1.0574687770432973 -1.1768136329062822 -0.2720138044800652 0.49727480400883445 0.28078470118928717 -4.910129932994725 -0.712290546463011 0.2928853417993168 0.7446202864039143 -0.963178228994683 -0.7109693851062896 -1.0889911672799641 0.653218588209098 -0.09418363957984789 -0.8068001941735947 0.6217423551101817 -0.31607492792899433 -15.605638413759936 -18.426774625900126 -14.564720999344578 -2.758468799618499 31.653999444236344 3.608842719210719 -1.7892297382307818 -5.473325560725997 -4.690210648325008 0.7050951556158142 -1.2874496774123836 0.09511921541358097 18.25594134947435 -18.44837509915029 16.233863845692078 2.3908404842883213 31.317318929478905 -2.6298883540588935 3.4416469454048 -4.317110711139415 6.654631110228621
-2.504376880824566 39.96433913707733 0.04637644160538912 -3.4653822796574176 3.0726101170017186 1.462979776109599 -0.5440707245292661 10.071072950048782 2.3214032870820906 2.454176615018438 -5.546719785339192 0.8297723081473162 -3.0782742648143633 9.363441446373365 -1.3780067800276454 5.3193000991871555 -16.105316270417852 -2.7767982525864627 0.3253038208385774 0.31802422656551893 -0.7962335713624678 -0.2951896768705498 0.7442540708705253 0.4216646632576462 0.39269703057482874 0.6505844830670001 0.5753609950558581 29.452506531336173 19.953391914836967 9.99901616185244 -14.920869260783846 -18.374837867451348 40.71164990637365 -2.6808996218751338 -6.897311146533759 -2.9056235177391314 0.4275740041893237 0.1803522122512445 0.466714776754052 -0.24095482657032802 0.7201603117690408 1.1098858898897968 -0.008722645157995522 -0.05089312688794017 0.09296030200668837 4.815051992200855 2.5815447020003663 0.865624984956918 0.6165986356957803 -0.26901825960091214 0.2468308436493753 1.79896275779805 1.3435302262532425 -0.8187667923211629 0.015335055347148003 -0.3261307539758249 0.06859752416535535 6.270488891589233 -0.3905825534181809 -0.7596316014565743 -0.055642229455001434 0.04077641610796124 0.8674550487676583 1.539132543373833 0.09863353450453766 -0.26283808566038774 0.3779285607636744 0.6692656907772198 0.1401532672932667 -36.48444241395818 19.963951387293807 -14.82973063159378 14.95541635760577 -17.662467920039237 -38.33673166025769 2.797469179779272 -7.637717312941481 2.892541144157618 0.6928022558528192 0.026302178039646407 0.28239102294385665 0.15457649238621798 0.9165427645588937 0.2601514467586191 0.22363209279321375 -0.13282919674932384 -0.409025184755126 -4.557207228390997 3.541413170733649 -0.16103537006139063 0.6474161290657605 0.6883815759950871 -0.8494538717666782 -1.6086297181787128 -0.6228610653910358 -0.8611247440675259 -0.3529999177578617 0.2938848972956658 -0.05507096150416656 -5.974442025977846 -0.3694705987762301 0.09663330293392884 0.8240479159317579 -0.8103138996147432 -0.5512856988094739 -1.566759484627771 0.29876485401422836 0.10963958393921984 -0.5870764770297224 0.6173866687712706 -0.2672394222089469 -19.206423644184156 -22.419337799568982 -17.578413904565767 -3.5278339008900175 38.55852156298634 4.189773786895575 -2.4353092846533353 -6.600211578016544 -5.984854222480708 0.6286280929280537 -0.9464958121120441 -0.023128167788000326 22.587421924853828 -21.966352823624568 19.56026330168396 2.903762291190303 38.38776000354685 -3.5436741767923348 3.912574828298839 -5.519966788133899 8.201531499679461
-3.35512962192297 44.97608244419098 0.027680920902639627 -4.080686274340363 3.570804541949272 1.649674992943964 -0.9258300075611128 11.17979535990215 2.682011235162553 2.5826674143451873 -6.545422361815641 0.9699918763002996 -3.3317103549583904 10.74052028116924 -1.8145178733025193 6.023231347879717 -18.08139245014009 -3.3309148513634956 0.25008172020961045 0.14762706839042092 -0.553526000857238 -0.15866721541010026 0.605851493119324 0.3653332650473478 0.3002344652636918 0.4213934300424026 0.45292350424188554 33.804938711994666 22.480558492647102 11.373298034183195 -16.95282321810596 -20.870930499632507 46.53399002283766 -3.0860869340078 -7.945357570895318 -3.4238227129920054 0.3095395841516293 0.045466381509806364 0.37170668531661594 -0.3104915951280527 0.5896805400116427 0.908845781694524 0.06068837854989215 -0.08008178022343099 0.08250306894398729 5.501306284434601 3.234597017791857 0.741904432435188 0.513674088206035 -0.3010536610772702 0.2617426407113941 1.9721236346269173 1.234056594566513 -0.6138546071967277 -0.07452953011929819 -0.3123726719141565 0.0907270702719322 7.194733441489257 -0.16764998138572484 -0.639164353413886 -0.01819288920520332 -0.0643303768216031 0.6649124056766886 1.693236125201307 -0.10186656185948087 -0.20990099798289483 0.29710623862382596 0.5446618026967367 0.10170864041535077 -41.48638460354986 22.67675738410301 -17.409998515106178 16.87351789165294 -20.056840252458688 -44.05161241050989 3.277146108113274 -9.060326188744662 3.2052846206385124 0.5280670576953973 -0.03448269027248539 0.1145706069939988 0.09773998034245603 0.7061487122952886 0.20546062797044606 0.23153300749711855 -0.1166486386881223 -0.2754828735677705 -5.2046425673637975 3.9936585652569994 -0.19290956840116583 0.4975924611660929 0.63890304531728 -0.746079492287064 -1.9085909225147513 -0.26608592065200815 -0.65042536100368 -0.3617024858949571 0.1846806845551814 -0.18310296421776137 -6.887992207184922 -0.08878979116752123 0.03339967840221524 0.7821117283666432 -0.6621286233422324 -0.43136593311744437 -1.857976659444018 0.06591249942938664 0.20013809633800786 -0.4087726811992471 0.5532542340334656 -0.23780434845480675 -22.107768475295096 -25.540382495522554 -19.976684567454004 -4.089349515528878 44.0458477308504 4.691377756899435 -2.9373713042184084 -7.476903924028115 -6.983841959355004 0.5264037999107934 -0.6933140397928942 -0.08216378730109483 26.08985755387174 -24.734307475339744 22.19180370774835 3.408592458359935 43.9865821794222 -4.250746458729457 4.250833543641374 -6.532524403341718 9.487327417539056
-4.018435440957546 48.912250995635986 0.01672748476266861 -4.588212018354623 3.9707535258753617 1.8450214981357962 -1.2506048622649844 12.024483147010333 2.980346641032717 2.637072218961866 -7.303463222886689 1.0798181165029312 -3.6011075299756796 11.829100463160241 -2.151102551968166 6.571926910889875 -19.643658203902522 -3.7242490105218393 0.1814006729692679 0.046271970305897636 -0.3770842853492374 -0.09736253234953349 0.5007903770798341 0.29294814752316917 0.21109596092252972 0.27086876061830956 0.35791066368854224 37.25833358277188 24.469825475203926 12.51381497462297 -18.598919298646543 -22.906712777984414 51.22964603947846 -3.4299954964544046 -8.760291346431634 -3.8737584363588335 0.2181940215740539 -0.043525060320788914 0.3191740462236083 -0.3258926044893736 0.454391141139792 0.6917638536555657 0.1077006239679428 -0.07286002911490609 0.0804359762247064 6.036627910163051 3.771901105926903 0.6214196286718986 0.39455676301977627 -0.278877424224414 0.25030207385162273 2.1493211532552623 1.1466577073904414 -0.4185708543678949 -0.11741063166740184 -0.2882566346565902 0.0887049607516382 7.929537145230276 0.01588936788697685 -0.511829243439044 1.3353553435903836e-05 -0.12958696464725697 0.49894916085083957 1.8227234918166433 -0.2627631937033556 -0.16509522383187564 0.23293618448473305 0.4317713155168552 0.0865399375270896 -45.49097232525253 24.826299878176062 -19.497478495285907 18.388861953364678 -21.960410559046657 -48.6289388148748 3.6394453817869614 -10.211489686553197 3.4435681495522776 0.4085960034153259 -0.07153740033473015 -0.011265916788260017 0.05173161264983857 0.5288403098146368 0.1770930914392377 0.19366778610010338 -0.0785289794043109 -0.1799885580387942 -5.762685671139941 4.333018221716375 -0.22060139645221893 0.3662065687657574 0.5655082337347032 -0.6323767995653329 -2.156607897882608 0.019135735455142754 -0.5039755397497343 -0.3287046680758619 0.12599810044481194 -0.22007146982216116 -7.645874266357769 0.11944143900671704 0.01470523720047878 0.6840056125320775 -0.5299236418500243 -0.33100894978624207 -2.0339692900140904 -0.09524869552312032 0.23085655196502286 -0.2740373280629608 0.47354549953259367 -0.21412280194190317 -24.4507897379871 -28.01510688088533 -21.90730583824981 -4.502445332946773 48.41830261106078 5.113561994781677 -3.3472477546597 -8.16194116192913 -7.772990917000876 0.4099844528075426 -0.49718430400233177 -0.0961810430252535 28.901262453991954 -26.92456131196066 24.285208877033067 3.8580101545669 48.438280914383064 -4.803711743744518 4.482038435254068 -7.36573747264428 10.536027832513644
